<svg xmlns="http://www.w3.org/2000/svg" xmlns:xlink="http://www.w3.org/1999/xlink" viewBox="0 0 216.35 197.49"><defs><linearGradient id="linear-gradient" x1="54.21" y1="35.4" x2="263.35" y2="35.4" gradientTransform="translate(-30.98 184.32) rotate(-47.72)" gradientUnits="userSpaceOnUse"><stop offset="0" stop-color="#96f"/><stop offset="1" stop-color="#fc9fff"/></linearGradient><clipPath id="clip-path" transform="translate(12.42)"><path d="M160.57,77a31.4,31.4,0,0,0-52.65-32.53,13,13,0,0,1-17.09,2.1,50.46,50.46,0,1,0-5.36,86.72,13.25,13.25,0,0,1,17.43,5.07,38.74,38.74,0,1,0,60.57-47.33A13,13,0,0,1,160.57,77Z" style="fill:none"/></clipPath><linearGradient id="linear-gradient-2" x1="38.02" y1="46.61" x2="217.33" y2="174.12" gradientTransform="matrix(1, 0, 0, 1, 0, 0)" xlink:href="#linear-gradient"/><radialGradient id="radial-gradient" cx="50.93" cy="88.69" r="50.93" gradientUnits="userSpaceOnUse"><stop offset="0" stop-color="#8c849c"/><stop offset="0.05" stop-color="#968fa5"/><stop offset="0.24" stop-color="#bcb7c5"/><stop offset="0.42" stop-color="#d9d6de"/><stop offset="0.6" stop-color="#eeedf0"/><stop offset="0.77" stop-color="#fbfafb"/><stop offset="0.92" stop-color="#fff"/></radialGradient><radialGradient id="radial-gradient-2" cx="96.92" cy="71.23" r="50.93" xlink:href="#radial-gradient"/><radialGradient id="radial-gradient-3" cx="141.61" cy="66.62" r="50.93" xlink:href="#radial-gradient"/><linearGradient id="linear-gradient-3" x1="-245.45" y1="-407.68" x2="-30.29" y2="-407.68" gradientTransform="translate(-201.28 -188.53) rotate(152.41)" xlink:href="#linear-gradient"/><radialGradient id="radial-gradient-4" cx="69.81" cy="45.95" r="23.95" xlink:href="#radial-gradient"/><linearGradient id="linear-gradient-4" x1="39.89" y1="42.08" x2="68.01" y2="42.08" gradientTransform="translate(18.69 -16.56) rotate(21.03)" xlink:href="#linear-gradient"/><radialGradient id="radial-gradient-5" cx="86.47" cy="177.83" r="19.66" gradientTransform="translate(75.62 -19.61) rotate(22.79)" xlink:href="#radial-gradient"/><linearGradient id="linear-gradient-5" x1="84.51" y1="174.65" x2="107.61" y2="174.65" gradientTransform="matrix(1, 0, 0, 1, 0, 0)" xlink:href="#linear-gradient"/></defs><g style="isolation:isolate"><g id="Layer_2" data-name="Layer 2"><g id="OBJECTS"><path d="M107.75,13.75A44.94,44.94,0,0,0,95.5,39.15,17.64,17.64,0,0,1,78.89,54.68,28.09,28.09,0,0,0,53.47,73.77a17.51,17.51,0,0,1-11.72,11,45.13,45.13,0,1,0,56.83,54.11,17.69,17.69,0,0,1,19.85-13.33c11.27,1.72,24.61,1.68,31.33-5.71a34.49,34.49,0,0,0,9-21.25,25.15,25.15,0,0,1,9.6-18.21,45.14,45.14,0,1,0-60.56-66.68Z" transform="translate(12.42)" style="opacity:0.28;fill:url(#linear-gradient)"/><g style="clip-path:url(#clip-path)"><path d="M160.57,77a31.4,31.4,0,0,0-52.65-32.53,13,13,0,0,1-17.09,2.1,50.46,50.46,0,1,0-5.36,86.72,13.25,13.25,0,0,1,17.43,5.07,38.74,38.74,0,1,0,60.57-47.33A13,13,0,0,1,160.57,77Z" transform="translate(12.42)" style="fill:url(#linear-gradient-2)"/><circle cx="50.93" cy="88.69" r="50.93" style="mix-blend-mode:multiply;fill:url(#radial-gradient)"/><circle cx="96.92" cy="71.23" r="50.93" style="mix-blend-mode:multiply;fill:url(#radial-gradient-2)"/><circle cx="141.61" cy="66.62" r="50.93" style="mix-blend-mode:multiply;fill:url(#radial-gradient-3)"/></g><path d="M67.1,162a47.07,47.07,0,0,0,9.68-6.17,19,19,0,0,1,24.29,0c11.05,9.22,28.71,17.59,50.71,6.09a46.86,46.86,0,0,0,24.83-47.16,19.21,19.21,0,0,1,9.68-19.12l.34-.2a34.64,34.64,0,1,0-45.14-50.65,18.34,18.34,0,0,1-19.65,6.72A46.87,46.87,0,0,0,73.31,66.85,19,19,0,0,1,55.26,73.6,46.88,46.88,0,1,0,67.1,162Z" transform="translate(12.42)" style="fill:url(#linear-gradient-3)"/><path d="M197.18,80h0a.66.66,0,0,1-.94,0l-3.69-3.69a.68.68,0,0,1,0-1h0a.68.68,0,0,1,.95,0L197.18,79A.66.66,0,0,1,197.18,80Z" transform="translate(12.42)" style="fill:#fff"/><path d="M192.55,80h0a.68.68,0,0,1,0-1l3.69-3.69a.66.66,0,0,1,.94,0h0a.66.66,0,0,1,0,1L193.5,80A.68.68,0,0,1,192.55,80Z" transform="translate(12.42)" style="fill:#fff"/><path d="M24.47,82.55h0a.68.68,0,0,1-.95,0l-3.69-3.69a.68.68,0,0,1,0-1h0a.68.68,0,0,1,1,0l3.69,3.69A.68.68,0,0,1,24.47,82.55Z" transform="translate(12.42)" style="fill:#fff"/><path d="M19.83,82.55h0a.68.68,0,0,1,0-1l3.69-3.69a.68.68,0,0,1,.95,0h0a.68.68,0,0,1,0,1l-3.69,3.69A.68.68,0,0,1,19.83,82.55Z" transform="translate(12.42)" style="fill:#fff"/><path d="M154.53,153.63h0a1,1,0,0,1-1.35,0l-5.25-5.26a.94.94,0,0,1,0-1.35h0a1,1,0,0,1,1.35,0l5.25,5.26A.94.94,0,0,1,154.53,153.63Z" transform="translate(12.42)" style="fill:#fff"/><path d="M147.93,153.63h0a.94.94,0,0,1,0-1.35l5.25-5.26a1,1,0,0,1,1.35,0h0a.94.94,0,0,1,0,1.35l-5.25,5.26A1,1,0,0,1,147.93,153.63Z" transform="translate(12.42)" style="fill:#fff"/><g style="mix-blend-mode:overlay"><path d="M21.72,73l-1.18.54-1.44.65c-.57.27-1.18.66-1.9,1.06-.35.21-.73.42-1.12.66l-1.18.84-1.29.92L12.3,78.75a32.8,32.8,0,0,0-5.46,6.08A32.58,32.58,0,0,0,2.33,93.9a33.09,33.09,0,0,0,1.76,24.87,32.67,32.67,0,0,0,9.4,11.62A34.12,34.12,0,0,0,28.31,137a35.14,35.14,0,0,0,17.31-1.47,4.29,4.29,0,0,1,4.23,1.62,8.37,8.37,0,0,1,1,2.14l.8,2.18a68.19,68.19,0,0,0,4.12,8.42,61.66,61.66,0,0,0,49,30.2,62.12,62.12,0,0,0,20.62-2.16l2.5-.78c.82-.23,1.64-.6,2.46-.9l2.46-.94c.81-.33,1.58-.74,2.37-1.11l2.36-1.13,2.28-1.31c.75-.45,1.52-.86,2.25-1.34l2.16-1.5A61.62,61.62,0,0,0,159,154.18a62.62,62.62,0,0,0,8.86-18.73l.69-2.48c.18-.84.33-1.69.5-2.53s.35-1.68.47-2.53l.3-2.54a48.34,48.34,0,0,0,.34-5.1c.08-1.69.05-3.4.17-5.12a46.09,46.09,0,0,1,5.51-19.32c.8-1.47,1.73-2.83,2.6-4.21s1.65-2.79,2.41-4.2a51.06,51.06,0,0,0,3.43-8.9,47.65,47.65,0,0,0-13.76-47.71,48.62,48.62,0,0,0-12.47-8.23c-1.11-.45-2.17-1-3.26-1.35l-3.26-1.09a51.88,51.88,0,0,0-6.42-1.36l-1.57-.24c-.51-.05-1-.07-1.55-.11-1-.05-2-.17-3-.17a46,46,0,0,0-5.72.3c-.91.12-1.81.15-2.68.34l-2.53.51c-.41.09-.83.16-1.22.25l-1.18.32c-.78.22-1.52.44-2.24.68A47.22,47.22,0,0,0,110.81,27c-1.34.94-2.3,1.73-3,2.27l-1,.83h0a.5.5,0,0,1-.65-.76h0l1-.85c.66-.54,1.65-1.35,3-2.31a48.2,48.2,0,0,1,12.85-6.46,35.6,35.6,0,0,1,4.74-1.27l2.59-.52c.88-.19,1.8-.22,2.73-.34a47.88,47.88,0,0,1,5.84-.29c1,0,2,.12,3.08.17.52,0,1.05.06,1.58.12l1.59.25a52.25,52.25,0,0,1,6.55,1.4l3.31,1.11c1.12.39,2.2.92,3.32,1.38a49.14,49.14,0,0,1,12.68,8.41A48.37,48.37,0,0,1,185,78.73a51,51,0,0,1-3.49,9c-.78,1.44-1.56,2.9-2.46,4.26s-1.8,2.74-2.58,4.17a45.17,45.17,0,0,0-5.46,19c-.12,1.68-.09,3.37-.18,5.09a49.3,49.3,0,0,1-.35,5.15l-.31,2.58c-.12.85-.32,1.7-.48,2.55s-.32,1.7-.51,2.55l-.7,2.52a63.28,63.28,0,0,1-9,18.9,62.28,62.28,0,0,1-14.95,14.87l-2.18,1.51c-.74.48-1.52.89-2.28,1.35l-2.3,1.32-2.4,1.14c-.8.37-1.58.79-2.4,1.12l-2.46.93c-.84.3-1.62.66-2.49.91l-2.52.78a62,62,0,0,1-57.8-13.36,61.8,61.8,0,0,1-12.34-15,67.07,67.07,0,0,1-4.13-8.49c-.27-.73-.53-1.46-.8-2.18a8.13,8.13,0,0,0-.91-2.05,3.92,3.92,0,0,0-3.86-1.48,35.46,35.46,0,0,1-17.44,1.44,34.54,34.54,0,0,1-14.95-6.71,33,33,0,0,1-9.46-11.74A33.56,33.56,0,0,1,.48,105.7,34,34,0,0,1,2.11,93.82,34.23,34.23,0,0,1,12.17,78.61l1.32-1.13,1.3-.92c.41-.3.81-.58,1.19-.84s.78-.46,1.13-.67c.73-.4,1.34-.8,1.91-1.06l1.45-.66,1.17-.53a.09.09,0,0,1,.08.16Z" transform="translate(12.42)" style="fill:#fff"/></g><circle cx="69.81" cy="45.95" r="23.95" style="mix-blend-mode:multiply;fill:url(#radial-gradient-4)"/><circle cx="53.95" cy="42.08" r="14.06" transform="translate(0.91 22.16) rotate(-21.03)" style="fill:url(#linear-gradient-4)"/><circle cx="86.47" cy="177.83" r="19.66" transform="translate(-49.71 47.37) rotate(-22.79)" style="mix-blend-mode:multiply;fill:url(#radial-gradient-5)"/><circle cx="96.06" cy="174.65" r="11.55" style="fill:url(#linear-gradient-5)"/></g></g></g></svg>