<svg xmlns="http://www.w3.org/2000/svg" xmlns:xlink="http://www.w3.org/1999/xlink" viewBox="0 0 206.63 185.88"><defs><linearGradient id="linear-gradient" x1="50.77" y1="101.9" x2="259.9" y2="101.9" gradientTransform="translate(-74.26 92.54) rotate(-36.42)" gradientUnits="userSpaceOnUse"><stop offset="0.44" stop-color="#ff34cb"/><stop offset="0.92" stop-color="#db32ff"/></linearGradient><clipPath id="clip-path" transform="translate(0 8.8)"><path d="M99.57,136.84l0,0a4.38,4.38,0,0,1,6.08.52c7.59,9,30,29.62,56.37,7.86a39,39,0,0,0,9.45-48.65,4.23,4.23,0,0,1,2.59-6.08,27,27,0,0,0,1.69-51.52,23.52,23.52,0,0,1-12.36-9.43,39.9,39.9,0,0,0-5-6.31A39,39,0,0,0,94,36.63,16.28,16.28,0,0,1,76,46.78a53.37,53.37,0,0,0-40.28,9.95C13.08,73.5,8.9,105.06,25.61,127.7A51.29,51.29,0,0,0,99.57,136.84Z" style="fill:none"/></clipPath><linearGradient id="linear-gradient-2" x1="-64.14" y1="10.96" x2="112.17" y2="10.96" gradientTransform="matrix(-0.77, 0.64, -0.64, -0.77, 135.57, 84.81)" gradientUnits="userSpaceOnUse"><stop offset="0" stop-color="#742fff"/><stop offset="1" stop-color="#a843ff"/></linearGradient><radialGradient id="radial-gradient" cx="50.56" cy="85.36" r="47.08" gradientUnits="userSpaceOnUse"><stop offset="0.08" stop-color="#ff5a78"/><stop offset="0.92" stop-color="#fff"/></radialGradient><radialGradient id="radial-gradient-2" cx="70.94" cy="131.04" r="47.08" xlink:href="#radial-gradient"/><radialGradient id="radial-gradient-3" cx="121.27" cy="138.81" r="47.08" xlink:href="#radial-gradient"/><radialGradient id="radial-gradient-4" cx="118.3" cy="47.08" r="47.08" xlink:href="#radial-gradient"/><radialGradient id="radial-gradient-5" cx="145.18" cy="58.02" r="47.08" xlink:href="#radial-gradient"/><radialGradient id="radial-gradient-6" cx="169.37" cy="151.35" r="20.91" gradientTransform="translate(156.63 -75.44) rotate(45)" gradientUnits="userSpaceOnUse"><stop offset="0" stop-color="#96f"/><stop offset="0.17" stop-color="#b894ff"/><stop offset="0.35" stop-color="#d1baff"/><stop offset="0.52" stop-color="#e5d8ff"/><stop offset="0.68" stop-color="#f4eeff"/><stop offset="0.85" stop-color="#fcfbff"/><stop offset="1" stop-color="#fff"/></radialGradient><linearGradient id="linear-gradient-3" x1="159.37" y1="127.44" x2="177.19" y2="186.83" gradientTransform="matrix(1, 0, 0, 1, 0, 0)" xlink:href="#linear-gradient-2"/><linearGradient id="linear-gradient-4" x1="12.49" y1="86.62" x2="206.63" y2="86.62" gradientTransform="matrix(1, 0, 0, 1, 0, 0)" xlink:href="#linear-gradient-2"/><radialGradient id="radial-gradient-7" cx="20.91" cy="112.84" r="20.91" gradientTransform="matrix(1, 0, 0, 1, 0, 0)" xlink:href="#radial-gradient-6"/><linearGradient id="linear-gradient-5" x1="10.91" y1="80.14" x2="28.73" y2="139.52" gradientTransform="matrix(1, 0, 0, 1, 0, 0)" xlink:href="#linear-gradient-2"/></defs><g style="isolation:isolate"><g id="Layer_2" data-name="Layer 2"><g id="OBJECTS"><path d="M131.91,8a44.89,44.89,0,0,0-17,22.51,17.63,17.63,0,0,1-19.33,12A28.09,28.09,0,0,0,66.92,56.22a17.54,17.54,0,0,1-13.66,8.54A45.13,45.13,0,1,0,98.39,129a17.68,17.68,0,0,1,22.08-9.17c10.71,3.89,23.79,6.46,31.84.53a34.55,34.55,0,0,0,12.94-19.08,25.17,25.17,0,0,1,13-16,46.44,46.44,0,0,0,6.2-3.85A45.13,45.13,0,0,0,131.91,8Z" transform="translate(0 8.8)" style="opacity:0.21;fill:url(#linear-gradient)"/><g style="clip-path:url(#clip-path)"><path d="M99.57,136.84l0,0a4.38,4.38,0,0,1,6.08.52c7.59,9,30,29.62,56.37,7.86a39,39,0,0,0,9.45-48.65,4.23,4.23,0,0,1,2.59-6.08,27,27,0,0,0,1.69-51.52,23.52,23.52,0,0,1-12.36-9.43,39.9,39.9,0,0,0-5-6.31A39,39,0,0,0,94,36.63,16.28,16.28,0,0,1,76,46.78a53.37,53.37,0,0,0-40.28,9.95C13.08,73.5,8.9,105.06,25.61,127.7A51.29,51.29,0,0,0,99.57,136.84Z" transform="translate(0 8.8)" style="fill:url(#linear-gradient-2)"/><circle cx="50.56" cy="85.36" r="47.08" style="mix-blend-mode:multiply;fill:url(#radial-gradient)"/><circle cx="70.94" cy="131.04" r="47.08" style="mix-blend-mode:multiply;fill:url(#radial-gradient-2)"/><circle cx="121.27" cy="138.81" r="47.08" style="mix-blend-mode:multiply;fill:url(#radial-gradient-3)"/><circle cx="118.3" cy="47.08" r="47.08" style="mix-blend-mode:multiply;fill:url(#radial-gradient-4)"/><circle cx="145.18" cy="58.02" r="47.08" style="mix-blend-mode:multiply;fill:url(#radial-gradient-5)"/></g><circle cx="169.37" cy="151.35" r="20.91" transform="translate(-57.41 172.89) rotate(-45)" style="mix-blend-mode:multiply;fill:url(#radial-gradient-6)"/><circle cx="167.72" cy="155.26" r="12.75" style="fill:url(#linear-gradient-3)"/><path d="M163.71,30.34a46.09,46.09,0,0,0-11.86.81,26.2,26.2,0,0,1-21.43-5.52,45.85,45.85,0,0,0-42.28-8,26.46,26.46,0,0,1-20.12-2A38.05,38.05,0,0,0,12.49,49.47c0,21,13.77,30.45,25,34.68a15.55,15.55,0,0,1,9.87,17,52,52,0,0,0,98.74,30,16,16,0,0,1,14.65-9.39h.12a45.78,45.78,0,0,0,2.85-91.47Z" transform="translate(0 8.8)" style="fill:url(#linear-gradient-4)"/><g style="mix-blend-mode:overlay"><path d="M172.17,137.2a33.83,33.83,0,0,0,30.51-25,33.1,33.1,0,0,0,.68-13.9,33.45,33.45,0,0,0-28-27.61c-.58-.08-1.15-.2-1.73-.25l-1.75-.09c-.58,0-1.16-.07-1.75-.08a4.38,4.38,0,0,1-1.78-.35A4.27,4.27,0,0,1,166,67.33a5.89,5.89,0,0,1-.2-1.8l0-1.75a61.22,61.22,0,0,0-7.28-26.85,61.32,61.32,0,0,0-44-31.52,58.3,58.3,0,0,0-14-.69A59.49,59.49,0,0,0,86.67,7.17L85,7.66c-.56.18-1.1.4-1.65.6-1.09.42-2.19.81-3.26,1.26a63.08,63.08,0,0,0-6.25,3.16,66.16,66.16,0,0,0-5.89,3.78A65.8,65.8,0,0,0,62.57,21a68,68,0,0,0-4.89,5,67.34,67.34,0,0,0-4.21,5.58,63.89,63.89,0,0,0-3.63,6c-.53,1-1,2.11-1.51,3.16-.24.53-.51,1-.72,1.59L47,43.91c-.86,2.15-1.57,4.41-2.51,6.59a48.6,48.6,0,0,1-3.25,6.29,43.93,43.93,0,0,1-9.18,10.75c-1.84,1.51-3.69,2.88-5.36,4.51-.88.77-1.64,1.66-2.46,2.48S22.72,76.3,22,77.19a48.6,48.6,0,0,0-6.92,12.07,47.65,47.65,0,0,0,62.73,61.38.5.5,0,1,1,.39.92h0a48.4,48.4,0,0,1-27.88,2.85A48.48,48.48,0,0,1,14.31,89a49.52,49.52,0,0,1,7-12.26c.77-.9,1.51-1.82,2.31-2.69s1.6-1.74,2.5-2.52c1.69-1.64,3.62-3.07,5.41-4.53a43.48,43.48,0,0,0,9-10.55,48.51,48.51,0,0,0,3.21-6.2c.93-2.14,1.64-4.36,2.51-6.56L47,42c.22-.55.5-1.07.74-1.6.51-1.07,1-2.14,1.53-3.19a66.33,66.33,0,0,1,3.68-6.05c1.26-2,2.82-3.77,4.27-5.63A70.66,70.66,0,0,1,67.57,16a69.8,69.8,0,0,1,6-3.81A65.42,65.42,0,0,1,79.84,9c1.09-.46,2.2-.84,3.3-1.27.55-.2,1.1-.42,1.66-.6l1.7-.49a59.61,59.61,0,0,1,13.89-2.45,58.85,58.85,0,0,1,14.09.72,61.87,61.87,0,0,1,51.61,58.88l0,1.77a5.52,5.52,0,0,0,.18,1.69,3.91,3.91,0,0,0,2.19,2.4,4.21,4.21,0,0,0,1.64.33c.59,0,1.18,0,1.77.08l1.77.09c.58,0,1.16.17,1.74.26a33.37,33.37,0,0,1,13.13,5,33.8,33.8,0,0,1,15.07,22.94,33.17,33.17,0,0,1-.71,14,34,34,0,0,1-30.74,25.06.08.08,0,0,1-.09-.08A.08.08,0,0,1,172.17,137.2Z" transform="translate(0 8.8)" style="fill:#fff"/></g><path d="M39.45,32.45h0a.68.68,0,0,1-1,0l-3.69-3.68a.68.68,0,0,1,0-.95h0a.68.68,0,0,1,.95,0l3.69,3.68A.68.68,0,0,1,39.45,32.45Z" transform="translate(0 8.8)" style="fill:#fff"/><path d="M34.81,32.45h0a.68.68,0,0,1,0-1l3.69-3.68a.68.68,0,0,1,1,0h0a.68.68,0,0,1,0,.95l-3.69,3.68A.68.68,0,0,1,34.81,32.45Z" transform="translate(0 8.8)" style="fill:#fff"/><path d="M192.6,45.09h0a.66.66,0,0,1-.95,0L188,41.41a.68.68,0,0,1,0-.95h0a.68.68,0,0,1,.95,0l3.68,3.69A.66.66,0,0,1,192.6,45.09Z" transform="translate(0 8.8)" style="fill:#fff"/><path d="M188,45.09h0a.66.66,0,0,1,0-.94l3.68-3.69a.68.68,0,0,1,.95,0h0a.68.68,0,0,1,0,.95l-3.68,3.68A.66.66,0,0,1,188,45.09Z" transform="translate(0 8.8)" style="fill:#fff"/><path d="M79.47,154.62h0a1,1,0,0,1-1.34,0l-5.21-5.21a1,1,0,0,1,0-1.34h0a1,1,0,0,1,1.34,0l5.21,5.21A1,1,0,0,1,79.47,154.62Z" transform="translate(0 8.8)" style="fill:#fff"/><path d="M72.92,154.62h0a1,1,0,0,1,0-1.34l5.21-5.21a1,1,0,0,1,1.34,0h0a1,1,0,0,1,0,1.34l-5.21,5.21A1,1,0,0,1,72.92,154.62Z" transform="translate(0 8.8)" style="fill:#fff"/><circle cx="20.91" cy="112.84" r="20.91" style="mix-blend-mode:multiply;fill:url(#radial-gradient-7)"/><circle cx="19.26" cy="107.95" r="12.75" style="fill:url(#linear-gradient-5)"/></g></g></g></svg>