<svg xmlns="http://www.w3.org/2000/svg" xmlns:xlink="http://www.w3.org/1999/xlink" viewBox="0 0 227.04 190.76"><defs><linearGradient id="linear-gradient" x1="84.58" y1="73.01" x2="306.85" y2="73.01" gradientTransform="translate(331.68 68.96) rotate(152.41)" gradientUnits="userSpaceOnUse"><stop offset="0" stop-color="#5289eb"/><stop offset="1" stop-color="#919bed"/></linearGradient><clipPath id="clip-path" transform="translate(5.33)"><path d="M176.68,69.75a46.46,46.46,0,0,0-29.13.55,18.24,18.24,0,0,1-22.06-8.08A29,29,0,0,0,96.05,47.67,18.09,18.09,0,0,1,80.4,42,46.62,46.62,0,1,0,57,119.63a18.26,18.26,0,0,1,21.53,12.09c3.67,11.19,9.92,23.47,19.87,26.22a35.62,35.62,0,0,0,23.76-1.65,26,26,0,0,1,21.26.36,46.63,46.63,0,0,0,64.74-31A46.78,46.78,0,0,0,176.68,69.75Z" style="fill:none"/></clipPath><linearGradient id="linear-gradient-2" x1="-0.42" y1="111.48" x2="215.62" y2="111.48" gradientTransform="translate(29.65 -35.82) rotate(15.47)" gradientUnits="userSpaceOnUse"><stop offset="0.08" stop-color="#c999ff"/><stop offset="0.44" stop-color="#96f"/><stop offset="0.92" stop-color="#a199ff"/></linearGradient><radialGradient id="radial-gradient" cx="143.64" cy="119.51" r="71.25" gradientUnits="userSpaceOnUse"><stop offset="0" stop-color="#424a58"/><stop offset="0.1" stop-color="#656c77"/><stop offset="0.26" stop-color="#9498a0"/><stop offset="0.41" stop-color="#babdc2"/><stop offset="0.57" stop-color="#d8dadd"/><stop offset="0.72" stop-color="#eeeff0"/><stop offset="0.86" stop-color="#fbfbfb"/><stop offset="1" stop-color="#fff"/></radialGradient><radialGradient id="radial-gradient-2" cx="71.25" cy="89.69" r="71.25" xlink:href="#radial-gradient"/><radialGradient id="radial-gradient-3" cx="130.43" cy="89.69" r="71.25" xlink:href="#radial-gradient"/><linearGradient id="linear-gradient-3" x1="26.84" y1="28.57" x2="212.08" y2="160.3" gradientTransform="matrix(1, 0, 0, 1, 0, 0)" xlink:href="#linear-gradient-2"/><radialGradient id="radial-gradient-4" cx="86.85" cy="14.17" r="14.17" gradientTransform="translate(12.2 -32.43) rotate(22.71)" xlink:href="#radial-gradient"/><radialGradient id="radial-gradient-5" cx="69.29" cy="135.29" r="14.17" gradientTransform="translate(112.13 -10.55) rotate(43.49)" xlink:href="#radial-gradient"/><linearGradient id="linear-gradient-4" x1="86.67" y1="-3.13" x2="94.32" y2="22.6" gradientTransform="matrix(1, 0, 0, 1, 0, 0)" xlink:href="#linear-gradient-2"/></defs><g style="isolation:isolate"><g id="Layer_2" data-name="Layer 2"><g id="OBJECTS"><path d="M80.35,149.75a48.81,48.81,0,0,0,10-6.38,19.59,19.59,0,0,1,25.09,0c11.41,9.52,29.66,18.18,52.39,6.3a48.45,48.45,0,0,0,25.65-48.72,19.86,19.86,0,0,1,10-19.76l.35-.2A35.79,35.79,0,1,0,157.2,28.63a18.93,18.93,0,0,1-20.3,6.94A48.44,48.44,0,0,0,86.77,51.43a19.67,19.67,0,0,1-18.65,7,48.43,48.43,0,1,0,12.23,91.34Z" transform="translate(5.33)" style="opacity:0.28;fill:url(#linear-gradient)"/><g style="clip-path:url(#clip-path)"><path d="M177.19,69.75a46.43,46.43,0,0,0-29.12.55A18.24,18.24,0,0,1,126,62.22,29,29,0,0,0,96.57,47.67,18.07,18.07,0,0,1,80.92,42a46.62,46.62,0,1,0-23.41,77.61,18.27,18.27,0,0,1,21.54,12.09c3.66,11.19,9.91,23.47,19.86,26.22a35.66,35.66,0,0,0,23.77-1.65,26,26,0,0,1,21.26.36,45.87,45.87,0,0,0,7.08,2.59,46.62,46.62,0,0,0,26.17-89.49Z" transform="translate(5.33)" style="fill:url(#linear-gradient-2)"/><circle cx="143.64" cy="119.51" r="71.25" style="mix-blend-mode:multiply;fill:url(#radial-gradient)"/><circle cx="71.25" cy="89.69" r="71.25" style="mix-blend-mode:multiply;fill:url(#radial-gradient-2)"/><circle cx="130.43" cy="89.69" r="71.25" style="mix-blend-mode:multiply;fill:url(#radial-gradient-3)"/></g><path d="M153.44,60a32.43,32.43,0,0,0-54.39-33.6A13.39,13.39,0,0,1,81.4,28.55a52.13,52.13,0,1,0-5.54,89.59,13.68,13.68,0,0,1,18,5.24,40,40,0,1,0,62.57-48.9A13.43,13.43,0,0,1,153.44,60Z" transform="translate(5.33)" style="fill:url(#linear-gradient-3)"/><g style="mix-blend-mode:overlay"><path d="M44.06,20.25l-1.2.12-1.49.16c-.59.06-1.25.23-2,.37-.38.08-.78.15-1.2.25l-1.3.4L35.43,22l-1.5.61A31.93,31.93,0,0,0,20.5,33.1a31.13,31.13,0,0,0-5.9,22.71A30.9,30.9,0,0,0,19.49,69,32.18,32.18,0,0,0,30.72,79.34,33,33,0,0,0,46.6,83.23a4,4,0,0,1,3.28,2.71,7.48,7.48,0,0,1,.22,2.19l.06,2.19a64.21,64.21,0,0,0,1.15,8.74,57.47,57.47,0,0,0,6.48,17A57.82,57.82,0,0,0,105,145l2.47.07c.8,0,1.64-.05,2.46-.07l2.48-.1c.82-.05,1.63-.19,2.44-.28l2.45-.3,2.42-.49c.81-.17,1.62-.31,2.42-.52l2.37-.68a58,58,0,0,0,17.6-8.73,58.69,58.69,0,0,0,13.53-14l1.36-2,1.2-2.11c.4-.7.82-1.39,1.18-2.11l1-2.18a45,45,0,0,0,1.83-4.44c.59-1.48,1.07-3,1.69-4.51A43.27,43.27,0,0,1,174.63,86.9c1.15-1.07,2.39-2,3.58-3s2.31-2,3.42-3A47.49,47.49,0,0,0,187.35,74a44.72,44.72,0,0,0,7-32.25,44.17,44.17,0,0,0-5-14.43,45.69,45.69,0,0,0-8.66-11.08c-.84-.74-1.63-1.52-2.49-2.19l-2.58-1.94A47.52,47.52,0,0,0,170.34,9L169,8.27c-.44-.2-.9-.37-1.35-.56-.89-.36-1.76-.76-2.64-1.06a44.72,44.72,0,0,0-5.19-1.45c-.85-.17-1.67-.41-2.49-.5l-2.41-.31a34.07,34.07,0,0,0-4.52-.27A44.68,44.68,0,0,0,137.28,6c-1.47.44-2.57.86-3.31,1.14l-1.12.45h0a.46.46,0,1,1-.34-.85h0l1.14-.45c.75-.29,1.88-.72,3.38-1.16a45.4,45.4,0,0,1,13.4-1.9,33.66,33.66,0,0,1,4.61.29l2.46.31c.84.1,1.67.34,2.53.52a43.56,43.56,0,0,1,5.29,1.49c.9.3,1.78.71,2.7,1.08.45.19.92.37,1.37.58l1.35.7a49.1,49.1,0,0,1,5.41,3.2l2.62,2c.88.68,1.68,1.48,2.54,2.23a46.29,46.29,0,0,1,8.79,11.3,45.57,45.57,0,0,1,4.68,31.31,45,45,0,0,1-6.84,16.14,47.81,47.81,0,0,1-5.82,7c-1.13,1-2.26,2.12-3.47,3.06s-2.43,1.9-3.55,2.94a42.79,42.79,0,0,0-10.58,15.32c-.61,1.46-1.09,3-1.69,4.49a43.53,43.53,0,0,1-1.85,4.48l-1.05,2.21c-.36.72-.8,1.42-1.19,2.13l-1.23,2.12-1.37,2a59.32,59.32,0,0,1-13.69,14.15,58.63,58.63,0,0,1-17.79,8.78l-2.39.69c-.81.21-1.63.34-2.44.52l-2.45.49-2.48.3c-.82.09-1.65.23-2.47.27l-2.48.1c-.83,0-1.64.1-2.49.06l-2.48-.07a58.25,58.25,0,0,1-47.52-29.25A57.87,57.87,0,0,1,51,99.14a61.92,61.92,0,0,1-1.13-8.81l-.06-2.19a8,8,0,0,0-.2-2.1,3.71,3.71,0,0,0-3-2.48,33.3,33.3,0,0,1-16-4A32.44,32.44,0,0,1,19.26,69.15a31.1,31.1,0,0,1-4.91-13.31,31.51,31.51,0,0,1,1-12.77,31.85,31.85,0,0,1,5-10.1,31,31,0,0,1,6.79-6.76,31.35,31.35,0,0,1,6.74-3.79l1.51-.61,1.44-.43L38.12,21c.42-.1.83-.17,1.21-.25.77-.14,1.44-.31,2-.38l1.48-.15,1.21-.12s.08,0,.09.07A.09.09,0,0,1,44.06,20.25Z" transform="translate(5.33)" style="fill:#fff"/></g><path d="M64.11,24h0a.87.87,0,0,1-1.23,0l-4.8-4.8a.88.88,0,0,1,0-1.24h0a.88.88,0,0,1,1.24,0l4.79,4.8A.86.86,0,0,1,64.11,24Z" transform="translate(5.33)" style="fill:#fff"/><path d="M58.08,24h0a.88.88,0,0,1,0-1.24l4.8-4.8a.87.87,0,0,1,1.23,0h0a.86.86,0,0,1,0,1.24L59.32,24A.88.88,0,0,1,58.08,24Z" transform="translate(5.33)" style="fill:#fff"/><path d="M44,121h0a.54.54,0,0,1-.78,0l-3-3a.56.56,0,0,1,0-.78h0a.54.54,0,0,1,.78,0l3,3A.55.55,0,0,1,44,121Z" transform="translate(5.33)" style="fill:#fff"/><path d="M40.23,121h0a.55.55,0,0,1,0-.77l3-3a.54.54,0,0,1,.78,0h0a.56.56,0,0,1,0,.78l-3,3A.54.54,0,0,1,40.23,121Z" transform="translate(5.33)" style="fill:#fff"/><path d="M171.69,156h0a.4.4,0,0,1-.56,0l-2.22-2.22a.4.4,0,0,1,0-.57h0a.42.42,0,0,1,.57,0l2.21,2.22A.4.4,0,0,1,171.69,156Z" transform="translate(5.33)" style="fill:#fff"/><path d="M168.91,156h0a.4.4,0,0,1,0-.57l2.22-2.22a.4.4,0,0,1,.56,0h0a.4.4,0,0,1,0,.57L169.48,156A.42.42,0,0,1,168.91,156Z" transform="translate(5.33)" style="fill:#fff"/><path d="M201.54,87.23h0a.85.85,0,0,1-1.21,0l-4.7-4.7a.86.86,0,0,1,0-1.21h0a.86.86,0,0,1,1.21,0l4.7,4.7A.86.86,0,0,1,201.54,87.23Z" transform="translate(5.33)" style="fill:#fff"/><path d="M195.63,87.23h0a.86.86,0,0,1,0-1.21l4.7-4.7a.86.86,0,0,1,1.21,0h0a.86.86,0,0,1,0,1.21l-4.7,4.7A.85.85,0,0,1,195.63,87.23Z" transform="translate(5.33)" style="fill:#fff"/><circle cx="86.85" cy="14.17" r="14.17" transform="translate(6.6 34.62) rotate(-22.71)" style="mix-blend-mode:multiply;fill:url(#radial-gradient-4)"/><circle cx="69.29" cy="135.29" r="14.17" transform="translate(-68.76 84.83) rotate(-43.49)" style="mix-blend-mode:multiply;fill:url(#radial-gradient-5)"/><circle cx="91.03" cy="11.53" r="7.64" style="fill:url(#linear-gradient-4)"/><circle cx="74.08" cy="134.57" r="7.64" style="fill:#bb89ff"/></g></g></g></svg>